<svg xmlns="http://www.w3.org/2000/svg" xmlns:xlink="http://www.w3.org/1999/xlink" width="500" zoomAndPan="magnify" viewBox="0 0 375 374.999991" height="500" preserveAspectRatio="xMidYMid meet" version="1.0"><defs><g/><clipPath id="44b47aeeb8"><path d="M 183.90625 210.597656 L 189.714844 210.597656 L 189.714844 216.402344 L 183.90625 216.402344 Z M 183.90625 210.597656 " clip-rule="nonzero"/></clipPath><clipPath id="f259d3046c"><path d="M 186.8125 210.597656 L 189.714844 213.5 L 186.8125 216.402344 L 183.90625 213.5 L 186.8125 210.597656 " clip-rule="nonzero"/></clipPath></defs><rect x="-37.5" width="450" fill="#ffffff" y="-37.499999" height="449.999989" fill-opacity="1"/><rect x="-37.5" width="450" fill="#ffffff" y="-37.499999" height="449.999989" fill-opacity="1"/><rect x="-37.5" width="450" fill="#101010" y="-37.499999" height="449.999989" fill-opacity="1"/><path stroke-linecap="butt" transform="matrix(0.75, 0, 0, 0.75, 36.810665, 155.09999)" fill="none" stroke-linejoin="miter" d="M 0.00244672 1.002097 L 160.002457 1.002097 " stroke="#ebebeb" stroke-width="2" stroke-opacity="1" stroke-miterlimit="4"/><path stroke-linecap="butt" transform="matrix(0.75, 0, 0, 0.75, 36.810665, 150.639789)" fill="none" stroke-linejoin="miter" d="M 0.00244672 1.001114 L 160.002457 1.001114 " stroke="#ebebeb" stroke-width="2" stroke-opacity="1" stroke-miterlimit="4"/><path stroke-linecap="butt" transform="matrix(0.75, 0, 0, 0.75, 36.810665, 212.74998)" fill="none" stroke-linejoin="miter" d="M 0.00244672 1.000026 L 160.002457 1.000026 " stroke="#ebebeb" stroke-width="2" stroke-opacity="1" stroke-miterlimit="4"/><path stroke-linecap="butt" transform="matrix(0.75, 0, 0, 0.75, 216.81065, 211.99998)" fill="none" stroke-linejoin="miter" d="M 0.00246632 1.000026 L 160.002477 1.000026 " stroke="#ebebeb" stroke-width="2" stroke-opacity="1" stroke-miterlimit="4"/><path stroke-linecap="butt" transform="matrix(0.75, 0, 0, 0.75, 216.81065, 155.09999)" fill="none" stroke-linejoin="miter" d="M 0.00246632 1.002097 L 160.002477 1.002097 " stroke="#ebebeb" stroke-width="2" stroke-opacity="1" stroke-miterlimit="4"/><path stroke-linecap="butt" transform="matrix(0.75, 0, 0, 0.75, 216.81065, 150.639789)" fill="none" stroke-linejoin="miter" d="M 0.00246632 1.001114 L 160.002477 1.001114 " stroke="#ebebeb" stroke-width="2" stroke-opacity="1" stroke-miterlimit="4"/><g clip-path="url(#44b47aeeb8)"><g clip-path="url(#f259d3046c)"><path fill="#ebebeb" d="M 183.90625 210.597656 L 189.714844 210.597656 L 189.714844 216.402344 L 183.90625 216.402344 Z M 183.90625 210.597656 " fill-opacity="1" fill-rule="nonzero"/></g></g><g fill="#ebebeb" fill-opacity="1"><g transform="translate(134.379232, 199.271663)"><g><path d="M 23.4375 -13.515625 C 23.4375 -10.859375 23.160156 -8.65625 22.609375 -6.90625 C 22.066406 -5.164062 21.25 -3.785156 20.15625 -2.765625 C 19.070312 -1.742188 17.726562 -1.023438 16.125 -0.609375 C 14.53125 -0.203125 12.675781 0 10.5625 0 L 3.015625 0 L 3.015625 -27.03125 L 10.484375 -27.03125 C 12.648438 -27.03125 14.539062 -26.800781 16.15625 -26.34375 C 17.78125 -25.894531 19.132812 -25.140625 20.21875 -24.078125 C 21.300781 -23.023438 22.109375 -21.632812 22.640625 -19.90625 C 23.171875 -18.1875 23.4375 -16.054688 23.4375 -13.515625 Z M 18.671875 -13.5625 C 18.671875 -15.382812 18.523438 -16.894531 18.234375 -18.09375 C 17.953125 -19.289062 17.476562 -20.242188 16.8125 -20.953125 C 16.15625 -21.660156 15.28125 -22.15625 14.1875 -22.4375 C 13.09375 -22.726562 11.738281 -22.875 10.125 -22.875 L 7.5625 -22.875 L 7.5625 -4.15625 L 10.125 -4.15625 C 11.757812 -4.15625 13.125 -4.304688 14.21875 -4.609375 C 15.3125 -4.921875 16.191406 -5.4375 16.859375 -6.15625 C 17.523438 -6.882812 17.992188 -7.847656 18.265625 -9.046875 C 18.535156 -10.253906 18.671875 -11.757812 18.671875 -13.5625 Z M 18.671875 -13.5625 "/></g></g></g><g fill="#ebebeb" fill-opacity="1"><g transform="translate(161.265968, 199.271663)"><g><path d="M 0.765625 0 L 9.84375 -27.03125 L 15.765625 -27.03125 L 24.890625 0 L 20.15625 0 L 18.09375 -6.234375 L 7.359375 -6.234375 L 5.3125 0 Z M 8.671875 -10.3125 L 16.71875 -10.3125 L 12.71875 -22.484375 Z M 8.671875 -10.3125 "/></g></g></g><g fill="#ebebeb" fill-opacity="1"><g transform="translate(188.347997, 199.271663)"><g><path d="M 18.4375 0 L 11.5625 -10.640625 L 7.796875 -10.640625 L 7.796875 0 L 3.25 0 L 3.25 -27.03125 L 12.359375 -27.03125 C 13.972656 -27.03125 15.390625 -26.890625 16.609375 -26.609375 C 17.828125 -26.328125 18.835938 -25.878906 19.640625 -25.265625 C 20.453125 -24.648438 21.0625 -23.84375 21.46875 -22.84375 C 21.875 -21.84375 22.078125 -20.628906 22.078125 -19.203125 C 22.078125 -17.921875 21.9375 -16.816406 21.65625 -15.890625 C 21.375 -14.972656 20.984375 -14.191406 20.484375 -13.546875 C 19.984375 -12.910156 19.382812 -12.40625 18.6875 -12.03125 C 18 -11.664062 17.253906 -11.398438 16.453125 -11.234375 L 23.71875 0 Z M 17.40625 -18.96875 C 17.40625 -19.757812 17.304688 -20.414062 17.109375 -20.9375 C 16.910156 -21.457031 16.609375 -21.875 16.203125 -22.1875 C 15.796875 -22.5 15.269531 -22.71875 14.625 -22.84375 C 13.976562 -22.976562 13.210938 -23.046875 12.328125 -23.046875 L 7.796875 -23.046875 L 7.796875 -14.65625 L 12.078125 -14.65625 C 13.097656 -14.65625 13.953125 -14.726562 14.640625 -14.875 C 15.328125 -15.019531 15.875 -15.257812 16.28125 -15.59375 C 16.6875 -15.9375 16.972656 -16.378906 17.140625 -16.921875 C 17.316406 -17.472656 17.40625 -18.15625 17.40625 -18.96875 Z M 17.40625 -18.96875 "/></g></g></g><g fill="#ebebeb" fill-opacity="1"><g transform="translate(214.394966, 199.271663)"><g><path d="M 18.28125 0 L 9.890625 -11.640625 L 7.796875 -9.234375 L 7.796875 0 L 3.25 0 L 3.25 -27.03125 L 7.796875 -27.03125 L 7.796875 -15.125 L 17.9375 -27.03125 L 23.40625 -27.03125 L 12.828125 -15 L 24.046875 0 Z M 18.28125 0 "/></g></g></g><g fill="#ebebeb" fill-opacity="1"><g transform="translate(79.671854, 242.395782)"><g><path d="M 11.65625 -7.03125 C 11.46875 -6.21875 11.21875 -5.554688 10.90625 -5.046875 C 10.601562 -4.535156 10.222656 -4.15625 9.765625 -3.90625 C 9.316406 -3.65625 8.804688 -3.515625 8.234375 -3.484375 C 7.660156 -3.460938 7.019531 -3.53125 6.3125 -3.6875 L 3.953125 -4.21875 L 2.859375 0.640625 L 2.046875 0.453125 L 5 -12.734375 L 8.390625 -11.96875 C 9.171875 -11.789062 9.800781 -11.546875 10.28125 -11.234375 C 10.757812 -10.921875 11.125 -10.550781 11.375 -10.125 C 11.625 -9.707031 11.765625 -9.234375 11.796875 -8.703125 C 11.835938 -8.179688 11.789062 -7.625 11.65625 -7.03125 Z M 10.71875 -7.1875 C 10.851562 -7.8125 10.894531 -8.347656 10.84375 -8.796875 C 10.789062 -9.253906 10.648438 -9.644531 10.421875 -9.96875 C 10.203125 -10.289062 9.90625 -10.550781 9.53125 -10.75 C 9.15625 -10.957031 8.71875 -11.117188 8.21875 -11.234375 L 5.65625 -11.8125 L 4.125 -4.96875 L 6.4375 -4.453125 C 7.050781 -4.304688 7.59375 -4.242188 8.0625 -4.265625 C 8.539062 -4.285156 8.945312 -4.394531 9.28125 -4.59375 C 9.625 -4.800781 9.910156 -5.117188 10.140625 -5.546875 C 10.378906 -5.972656 10.570312 -6.519531 10.71875 -7.1875 Z M 10.71875 -7.1875 "/></g></g></g><g fill="#ebebeb" fill-opacity="1"><g transform="translate(98.446163, 246.436409)"><g><path d="M 9.578125 1.734375 L 7.21875 -4.71875 L 3.9375 -5.3125 L 2.890625 0.515625 L 2.0625 0.375 L 4.46875 -12.921875 L 7.890625 -12.296875 C 8.609375 -12.171875 9.222656 -11.992188 9.734375 -11.765625 C 10.242188 -11.535156 10.65625 -11.242188 10.96875 -10.890625 C 11.28125 -10.535156 11.484375 -10.109375 11.578125 -9.609375 C 11.679688 -9.117188 11.675781 -8.546875 11.5625 -7.890625 C 11.457031 -7.316406 11.304688 -6.832031 11.109375 -6.4375 C 10.921875 -6.050781 10.679688 -5.726562 10.390625 -5.46875 C 10.097656 -5.21875 9.757812 -5.03125 9.375 -4.90625 C 9 -4.789062 8.5625 -4.722656 8.0625 -4.703125 L 10.609375 1.921875 Z M 10.65625 -8.078125 C 10.75 -8.566406 10.769531 -9 10.71875 -9.375 C 10.675781 -9.757812 10.539062 -10.09375 10.3125 -10.375 C 10.09375 -10.65625 9.773438 -10.894531 9.359375 -11.09375 C 8.941406 -11.289062 8.398438 -11.453125 7.734375 -11.578125 L 5.15625 -12.046875 L 4.078125 -6.0625 L 6.65625 -5.59375 C 7.3125 -5.46875 7.867188 -5.421875 8.328125 -5.453125 C 8.796875 -5.492188 9.1875 -5.613281 9.5 -5.8125 C 9.8125 -6.019531 10.054688 -6.3125 10.234375 -6.6875 C 10.421875 -7.0625 10.5625 -7.523438 10.65625 -8.078125 Z M 10.65625 -8.078125 "/></g></g></g><g fill="#ebebeb" fill-opacity="1"><g transform="translate(118.024915, 249.813127)"><g><path d="M 12.640625 -5.109375 C 12.492188 -4.035156 12.269531 -3.082031 11.96875 -2.25 C 11.675781 -1.414062 11.285156 -0.722656 10.796875 -0.171875 C 10.304688 0.378906 9.710938 0.773438 9.015625 1.015625 C 8.328125 1.253906 7.507812 1.304688 6.5625 1.171875 C 5.625 1.046875 4.847656 0.769531 4.234375 0.34375 C 3.628906 -0.0703125 3.164062 -0.609375 2.84375 -1.265625 C 2.519531 -1.929688 2.320312 -2.703125 2.25 -3.578125 C 2.1875 -4.453125 2.226562 -5.425781 2.375 -6.5 C 2.519531 -7.550781 2.738281 -8.5 3.03125 -9.34375 C 3.332031 -10.1875 3.726562 -10.878906 4.21875 -11.421875 C 4.707031 -11.972656 5.300781 -12.367188 6 -12.609375 C 6.695312 -12.847656 7.515625 -12.90625 8.453125 -12.78125 C 9.398438 -12.644531 10.175781 -12.367188 10.78125 -11.953125 C 11.382812 -11.546875 11.847656 -11.015625 12.171875 -10.359375 C 12.503906 -9.703125 12.703125 -8.925781 12.765625 -8.03125 C 12.828125 -7.144531 12.785156 -6.171875 12.640625 -5.109375 Z M 11.734375 -5.234375 C 11.867188 -6.210938 11.914062 -7.097656 11.875 -7.890625 C 11.832031 -8.679688 11.675781 -9.359375 11.40625 -9.921875 C 11.144531 -10.492188 10.765625 -10.953125 10.265625 -11.296875 C 9.765625 -11.640625 9.125 -11.867188 8.34375 -11.984375 C 7.5625 -12.085938 6.882812 -12.039062 6.3125 -11.84375 C 5.738281 -11.65625 5.25 -11.320312 4.84375 -10.84375 C 4.4375 -10.375 4.109375 -9.757812 3.859375 -9 C 3.617188 -8.238281 3.429688 -7.363281 3.296875 -6.375 C 3.160156 -5.394531 3.109375 -4.507812 3.140625 -3.71875 C 3.179688 -2.9375 3.332031 -2.257812 3.59375 -1.6875 C 3.863281 -1.113281 4.242188 -0.648438 4.734375 -0.296875 C 5.234375 0.046875 5.875 0.269531 6.65625 0.375 C 7.4375 0.488281 8.113281 0.445312 8.6875 0.25 C 9.269531 0.0507812 9.765625 -0.289062 10.171875 -0.78125 C 10.578125 -1.269531 10.90625 -1.882812 11.15625 -2.625 C 11.40625 -3.375 11.597656 -4.242188 11.734375 -5.234375 Z M 11.734375 -5.234375 "/></g></g></g><g fill="#ebebeb" fill-opacity="1"><g transform="translate(139.433598, 252.528383)"><g><path d="M 11.515625 -9.734375 C 11.359375 -10.140625 11.179688 -10.492188 10.984375 -10.796875 C 10.785156 -11.109375 10.539062 -11.367188 10.25 -11.578125 C 9.96875 -11.796875 9.644531 -11.96875 9.28125 -12.09375 C 8.925781 -12.21875 8.515625 -12.300781 8.046875 -12.34375 C 7.265625 -12.40625 6.578125 -12.332031 5.984375 -12.125 C 5.398438 -11.914062 4.910156 -11.566406 4.515625 -11.078125 C 4.117188 -10.585938 3.800781 -9.960938 3.5625 -9.203125 C 3.332031 -8.453125 3.175781 -7.566406 3.09375 -6.546875 C 3 -5.554688 3 -4.660156 3.09375 -3.859375 C 3.195312 -3.066406 3.410156 -2.390625 3.734375 -1.828125 C 4.066406 -1.273438 4.519531 -0.828125 5.09375 -0.484375 C 5.664062 -0.148438 6.390625 0.0507812 7.265625 0.125 C 7.554688 0.15625 7.832031 0.164062 8.09375 0.15625 C 8.363281 0.144531 8.632812 0.117188 8.90625 0.078125 C 9.1875 0.0351562 9.460938 -0.0195312 9.734375 -0.09375 C 10.003906 -0.175781 10.289062 -0.269531 10.59375 -0.375 L 10.984375 -4.75 L 7.09375 -5.09375 L 7.171875 -5.84375 L 11.90625 -5.421875 L 11.40625 0.21875 C 11.007812 0.351562 10.648438 0.472656 10.328125 0.578125 C 10.003906 0.691406 9.679688 0.78125 9.359375 0.84375 C 9.035156 0.90625 8.695312 0.941406 8.34375 0.953125 C 7.988281 0.972656 7.578125 0.960938 7.109375 0.921875 C 6.054688 0.828125 5.1875 0.570312 4.5 0.15625 C 3.8125 -0.257812 3.28125 -0.796875 2.90625 -1.453125 C 2.53125 -2.117188 2.289062 -2.894531 2.1875 -3.78125 C 2.09375 -4.664062 2.09375 -5.628906 2.1875 -6.671875 C 2.28125 -7.742188 2.457031 -8.695312 2.71875 -9.53125 C 2.988281 -10.375 3.359375 -11.078125 3.828125 -11.640625 C 4.304688 -12.203125 4.90625 -12.609375 5.625 -12.859375 C 6.34375 -13.117188 7.195312 -13.203125 8.1875 -13.109375 C 8.769531 -13.054688 9.285156 -12.953125 9.734375 -12.796875 C 10.179688 -12.648438 10.566406 -12.453125 10.890625 -12.203125 C 11.210938 -11.953125 11.488281 -11.644531 11.71875 -11.28125 C 11.957031 -10.925781 12.160156 -10.523438 12.328125 -10.078125 Z M 11.515625 -9.734375 "/></g></g></g><g fill="#ebebeb" fill-opacity="1"><g transform="translate(160.950613, 254.246337)"><g><path d="M 9.71875 0.4375 L 6.53125 -5.640625 L 3.203125 -5.796875 L 2.9375 0.125 L 2.09375 0.09375 L 2.703125 -13.40625 L 6.1875 -13.25 C 6.914062 -13.21875 7.546875 -13.117188 8.078125 -12.953125 C 8.617188 -12.796875 9.066406 -12.5625 9.421875 -12.25 C 9.773438 -11.945312 10.03125 -11.554688 10.1875 -11.078125 C 10.351562 -10.597656 10.421875 -10.023438 10.390625 -9.359375 C 10.367188 -8.773438 10.285156 -8.273438 10.140625 -7.859375 C 10.003906 -7.441406 9.804688 -7.085938 9.546875 -6.796875 C 9.296875 -6.515625 8.988281 -6.289062 8.625 -6.125 C 8.269531 -5.957031 7.847656 -5.832031 7.359375 -5.75 L 10.765625 0.484375 Z M 9.46875 -9.421875 C 9.488281 -9.921875 9.453125 -10.351562 9.359375 -10.71875 C 9.273438 -11.09375 9.101562 -11.40625 8.84375 -11.65625 C 8.582031 -11.90625 8.234375 -12.097656 7.796875 -12.234375 C 7.367188 -12.378906 6.816406 -12.46875 6.140625 -12.5 L 3.515625 -12.625 L 3.234375 -6.5625 L 5.859375 -6.4375 C 6.523438 -6.40625 7.082031 -6.4375 7.53125 -6.53125 C 7.976562 -6.625 8.34375 -6.789062 8.625 -7.03125 C 8.90625 -7.269531 9.109375 -7.585938 9.234375 -7.984375 C 9.367188 -8.378906 9.445312 -8.859375 9.46875 -9.421875 Z M 9.46875 -9.421875 "/></g></g></g><g fill="#ebebeb" fill-opacity="1"><g transform="translate(180.795173, 254.966658)"><g><path d="M 0.75 0 L 5.53125 -13.5 L 6.578125 -13.5 L 11.359375 0.03125 L 10.375 0.015625 L 8.9375 -4.28125 L 3.15625 -4.296875 L 1.6875 0 Z M 3.421875 -5.0625 L 8.65625 -5.046875 L 6.03125 -12.734375 Z M 3.421875 -5.0625 "/></g></g></g><g fill="#ebebeb" fill-opacity="1"><g transform="translate(201.157612, 254.850822)"><g><path d="M 11.890625 -0.53125 L 11.328125 -13.140625 L 7.546875 -4.328125 L 6.90625 -4.296875 L 2.375 -12.734375 L 2.9375 -0.125 L 2.09375 -0.09375 L 1.5 -13.59375 L 2.8125 -13.65625 L 7.21875 -5.453125 L 10.828125 -14 L 12.140625 -14.0625 L 12.734375 -0.5625 Z M 11.890625 -0.53125 "/></g></g></g><g fill="#ebebeb" fill-opacity="1"><g transform="translate(224.253073, 253.627584)"><g><path d="M 11.859375 -1.109375 L 10.6875 -13.671875 L 7.3125 -4.6875 L 6.671875 -4.625 L 1.75 -12.84375 L 2.921875 -0.28125 L 2.078125 -0.1875 L 0.8125 -13.640625 L 2.125 -13.765625 L 6.921875 -5.796875 L 10.125 -14.515625 L 11.421875 -14.640625 L 12.6875 -1.1875 Z M 11.859375 -1.109375 "/></g></g></g><g fill="#ebebeb" fill-opacity="1"><g transform="translate(247.186917, 251.231348)"><g><path d="M 5.46875 -0.734375 L 0.984375 -0.140625 L 0.875 -0.90625 L 2.703125 -1.140625 L 1.109375 -13.03125 L -0.71875 -12.796875 L -0.8125 -13.53125 L 3.671875 -14.125 L 3.765625 -13.390625 L 1.953125 -13.140625 L 3.546875 -1.25 L 5.359375 -1.5 Z M 5.46875 -0.734375 "/></g></g></g><g fill="#ebebeb" fill-opacity="1"><g transform="translate(261.774108, 249.178159)"><g><path d="M 10.09375 -1.75 L 0.75 -12.859375 L 2.890625 -0.5 L 2.0625 -0.359375 L -0.25 -13.671875 L 0.9375 -13.875 L 9.96875 -3.15625 L 7.890625 -15.09375 L 8.71875 -15.234375 L 11.03125 -1.921875 Z M 10.09375 -1.75 "/></g></g></g><g fill="#ebebeb" fill-opacity="1"><g transform="translate(282.982931, 245.299884)"><g><path d="M 8.046875 -12.765625 C 7.765625 -13.109375 7.484375 -13.394531 7.203125 -13.625 C 6.921875 -13.851562 6.613281 -14.023438 6.28125 -14.140625 C 5.945312 -14.265625 5.585938 -14.328125 5.203125 -14.328125 C 4.816406 -14.335938 4.398438 -14.289062 3.953125 -14.1875 C 3.171875 -14.007812 2.535156 -13.734375 2.046875 -13.359375 C 1.554688 -12.984375 1.191406 -12.503906 0.953125 -11.921875 C 0.722656 -11.335938 0.613281 -10.648438 0.625 -9.859375 C 0.632812 -9.066406 0.75 -8.175781 0.96875 -7.1875 C 1.1875 -6.207031 1.457031 -5.351562 1.78125 -4.625 C 2.113281 -3.90625 2.519531 -3.320312 3 -2.875 C 3.488281 -2.4375 4.054688 -2.144531 4.703125 -2 C 5.359375 -1.851562 6.113281 -1.875 6.96875 -2.0625 C 7.25 -2.125 7.515625 -2.195312 7.765625 -2.28125 C 8.023438 -2.375 8.273438 -2.484375 8.515625 -2.609375 C 8.765625 -2.734375 9.007812 -2.875 9.25 -3.03125 C 9.5 -3.1875 9.75 -3.363281 10 -3.5625 L 9.046875 -7.84375 L 5.234375 -7 L 5.0625 -7.75 L 9.703125 -8.765625 L 10.9375 -3.234375 C 10.613281 -2.984375 10.3125 -2.757812 10.03125 -2.5625 C 9.75 -2.363281 9.460938 -2.179688 9.171875 -2.015625 C 8.878906 -1.859375 8.566406 -1.71875 8.234375 -1.59375 C 7.910156 -1.476562 7.519531 -1.367188 7.0625 -1.265625 C 6.03125 -1.035156 5.125 -1.015625 4.34375 -1.203125 C 3.5625 -1.390625 2.890625 -1.742188 2.328125 -2.265625 C 1.773438 -2.785156 1.316406 -3.453125 0.953125 -4.265625 C 0.585938 -5.078125 0.289062 -6 0.0625 -7.03125 C -0.164062 -8.070312 -0.28125 -9.03125 -0.28125 -9.90625 C -0.28125 -10.789062 -0.140625 -11.570312 0.140625 -12.25 C 0.421875 -12.925781 0.863281 -13.492188 1.46875 -13.953125 C 2.082031 -14.421875 2.875 -14.765625 3.84375 -14.984375 C 4.414062 -15.109375 4.9375 -15.164062 5.40625 -15.15625 C 5.875 -15.144531 6.300781 -15.066406 6.6875 -14.921875 C 7.070312 -14.773438 7.429688 -14.566406 7.765625 -14.296875 C 8.097656 -14.023438 8.414062 -13.707031 8.71875 -13.34375 Z M 8.046875 -12.765625 "/></g></g></g><g fill="#ebebeb" fill-opacity="1"><g transform="translate(121.560636, 148.586648)"><g><path d="M 10.375 -6.109375 C 10.300781 -5.671875 10.191406 -5.25 10.046875 -4.84375 C 9.898438 -4.4375 9.6875 -4.0625 9.40625 -3.71875 C 9.132812 -3.375 8.789062 -3.054688 8.375 -2.765625 C 7.96875 -2.484375 7.460938 -2.238281 6.859375 -2.03125 C 5.941406 -1.726562 5.101562 -1.601562 4.34375 -1.65625 C 3.59375 -1.71875 2.90625 -1.953125 2.28125 -2.359375 C 1.65625 -2.765625 1.097656 -3.347656 0.609375 -4.109375 C 0.117188 -4.878906 -0.3125 -5.816406 -0.6875 -6.921875 C -1.039062 -7.960938 -1.257812 -8.925781 -1.34375 -9.8125 C -1.4375 -10.695312 -1.367188 -11.5 -1.140625 -12.21875 C -0.910156 -12.9375 -0.519531 -13.554688 0.03125 -14.078125 C 0.582031 -14.609375 1.320312 -15.03125 2.25 -15.34375 C 2.789062 -15.53125 3.296875 -15.644531 3.765625 -15.6875 C 4.234375 -15.726562 4.679688 -15.703125 5.109375 -15.609375 C 5.535156 -15.515625 5.9375 -15.359375 6.3125 -15.140625 C 6.6875 -14.921875 7.050781 -14.640625 7.40625 -14.296875 L 6.8125 -13.625 C 6.5 -13.925781 6.179688 -14.171875 5.859375 -14.359375 C 5.535156 -14.554688 5.195312 -14.695312 4.84375 -14.78125 C 4.5 -14.863281 4.132812 -14.890625 3.75 -14.859375 C 3.363281 -14.835938 2.945312 -14.75 2.5 -14.59375 C 1.71875 -14.320312 1.09375 -13.96875 0.625 -13.53125 C 0.164062 -13.09375 -0.148438 -12.566406 -0.328125 -11.953125 C -0.503906 -11.347656 -0.546875 -10.648438 -0.453125 -9.859375 C -0.359375 -9.066406 -0.148438 -8.1875 0.171875 -7.21875 C 0.492188 -6.289062 0.851562 -5.488281 1.25 -4.8125 C 1.65625 -4.132812 2.117188 -3.597656 2.640625 -3.203125 C 3.160156 -2.804688 3.742188 -2.566406 4.390625 -2.484375 C 5.035156 -2.410156 5.773438 -2.515625 6.609375 -2.796875 C 7.160156 -2.984375 7.613281 -3.21875 7.96875 -3.5 C 8.332031 -3.78125 8.617188 -4.070312 8.828125 -4.375 C 9.046875 -4.6875 9.203125 -5.007812 9.296875 -5.34375 C 9.398438 -5.6875 9.472656 -6 9.515625 -6.28125 Z M 10.375 -6.109375 "/></g></g></g><g fill="#ebebeb" fill-opacity="1"><g transform="translate(135.017466, 144.048522)"><g><path d="M 9.796875 -9.484375 C 10.054688 -8.441406 10.207031 -7.472656 10.25 -6.578125 C 10.289062 -5.691406 10.1875 -4.90625 9.9375 -4.21875 C 9.695312 -3.53125 9.296875 -2.945312 8.734375 -2.46875 C 8.179688 -1.988281 7.441406 -1.628906 6.515625 -1.390625 C 5.597656 -1.148438 4.78125 -1.109375 4.0625 -1.265625 C 3.34375 -1.429688 2.707031 -1.753906 2.15625 -2.234375 C 1.613281 -2.722656 1.144531 -3.363281 0.75 -4.15625 C 0.351562 -4.957031 0.0234375 -5.878906 -0.234375 -6.921875 C -0.503906 -7.953125 -0.65625 -8.910156 -0.6875 -9.796875 C -0.726562 -10.679688 -0.625 -11.46875 -0.375 -12.15625 C -0.132812 -12.851562 0.257812 -13.441406 0.8125 -13.921875 C 1.375 -14.410156 2.113281 -14.773438 3.03125 -15.015625 C 3.957031 -15.253906 4.773438 -15.296875 5.484375 -15.140625 C 6.203125 -14.984375 6.835938 -14.660156 7.390625 -14.171875 C 7.941406 -13.679688 8.410156 -13.035156 8.796875 -12.234375 C 9.191406 -11.441406 9.523438 -10.523438 9.796875 -9.484375 Z M 8.90625 -9.25 C 8.65625 -10.207031 8.363281 -11.046875 8.03125 -11.765625 C 7.695312 -12.492188 7.300781 -13.070312 6.84375 -13.5 C 6.382812 -13.925781 5.851562 -14.207031 5.25 -14.34375 C 4.65625 -14.476562 3.976562 -14.445312 3.21875 -14.25 C 2.445312 -14.050781 1.832031 -13.753906 1.375 -13.359375 C 0.914062 -12.960938 0.585938 -12.46875 0.390625 -11.875 C 0.203125 -11.28125 0.132812 -10.582031 0.1875 -9.78125 C 0.25 -8.988281 0.40625 -8.109375 0.65625 -7.140625 C 0.894531 -6.179688 1.179688 -5.34375 1.515625 -4.625 C 1.847656 -3.914062 2.238281 -3.34375 2.6875 -2.90625 C 3.144531 -2.476562 3.671875 -2.195312 4.265625 -2.0625 C 4.867188 -1.925781 5.554688 -1.957031 6.328125 -2.15625 C 7.085938 -2.351562 7.695312 -2.648438 8.15625 -3.046875 C 8.613281 -3.441406 8.9375 -3.941406 9.125 -4.546875 C 9.320312 -5.160156 9.394531 -5.851562 9.34375 -6.625 C 9.289062 -7.40625 9.144531 -8.28125 8.90625 -9.25 Z M 8.90625 -9.25 "/></g></g></g><g fill="#ebebeb" fill-opacity="1"><g transform="translate(149.264486, 140.424373)"><g><path d="M 11.734375 -1.984375 L 9.625 -14.4375 L 6.9375 -5.21875 L 6.3125 -5.109375 L 0.78125 -12.9375 L 2.890625 -0.484375 L 2.0625 -0.34375 L -0.203125 -13.671875 L 1.09375 -13.890625 L 6.46875 -6.296875 L 9.015625 -15.234375 L 10.3125 -15.453125 L 12.578125 -2.125 Z M 11.734375 -1.984375 "/></g></g></g><g fill="#ebebeb" fill-opacity="1"><g transform="translate(165.274469, 137.802016)"><g><path d="M 10.671875 -6.578125 C 10.765625 -5.460938 10.765625 -4.519531 10.671875 -3.75 C 10.578125 -2.976562 10.367188 -2.347656 10.046875 -1.859375 C 9.722656 -1.367188 9.28125 -1 8.71875 -0.75 C 8.164062 -0.5 7.472656 -0.335938 6.640625 -0.265625 C 5.742188 -0.191406 4.988281 -0.234375 4.375 -0.390625 C 3.757812 -0.546875 3.253906 -0.84375 2.859375 -1.28125 C 2.460938 -1.726562 2.160156 -2.320312 1.953125 -3.0625 C 1.753906 -3.800781 1.609375 -4.710938 1.515625 -5.796875 L 0.84375 -13.640625 L 1.671875 -13.71875 L 2.328125 -6.078125 C 2.421875 -5.023438 2.550781 -4.148438 2.71875 -3.453125 C 2.894531 -2.765625 3.144531 -2.234375 3.46875 -1.859375 C 3.800781 -1.484375 4.21875 -1.234375 4.71875 -1.109375 C 5.21875 -0.984375 5.832031 -0.953125 6.5625 -1.015625 C 7.28125 -1.078125 7.875 -1.207031 8.34375 -1.40625 C 8.8125 -1.613281 9.171875 -1.929688 9.421875 -2.359375 C 9.671875 -2.785156 9.820312 -3.347656 9.875 -4.046875 C 9.9375 -4.742188 9.921875 -5.617188 9.828125 -6.671875 L 9.171875 -14.359375 L 10 -14.421875 Z M 10.671875 -6.578125 "/></g></g></g><g fill="#ebebeb" fill-opacity="1"><g transform="translate(179.839186, 136.60941)"><g><path d="M 10.25 -0.0625 L 2.859375 -12.5625 L 2.9375 -0.015625 L 2.09375 -0.015625 L 2 -13.53125 L 3.203125 -13.53125 L 10.34375 -1.453125 L 10.265625 -13.578125 L 11.109375 -13.59375 L 11.203125 -0.078125 Z M 10.25 -0.0625 "/></g></g></g><g fill="#ebebeb" fill-opacity="1"><g transform="translate(194.673551, 136.660467)"><g><path d="M 5.5 0.296875 L 1 0.046875 L 1.046875 -0.71875 L 2.890625 -0.609375 L 3.546875 -12.59375 L 1.703125 -12.703125 L 1.734375 -13.453125 L 6.234375 -13.203125 L 6.203125 -12.453125 L 4.390625 -12.546875 L 3.734375 -0.5625 L 5.546875 -0.46875 Z M 5.5 0.296875 "/></g></g></g><g fill="#ebebeb" fill-opacity="1"><g transform="translate(202.745223, 137.060876)"><g><path d="M 11.625 -5.484375 C 11.476562 -4.171875 11.222656 -3.097656 10.859375 -2.265625 C 10.492188 -1.429688 10.019531 -0.789062 9.4375 -0.34375 C 8.863281 0.101562 8.191406 0.390625 7.421875 0.515625 C 6.648438 0.648438 5.800781 0.664062 4.875 0.5625 L 1.96875 0.21875 L 3.5 -13.203125 L 6.40625 -12.859375 C 7.425781 -12.742188 8.300781 -12.53125 9.03125 -12.21875 C 9.757812 -11.914062 10.34375 -11.472656 10.78125 -10.890625 C 11.21875 -10.304688 11.503906 -9.570312 11.640625 -8.6875 C 11.773438 -7.800781 11.769531 -6.734375 11.625 -5.484375 Z M 10.71875 -5.59375 C 10.84375 -6.664062 10.859375 -7.585938 10.765625 -8.359375 C 10.671875 -9.140625 10.445312 -9.785156 10.09375 -10.296875 C 9.738281 -10.816406 9.238281 -11.226562 8.59375 -11.53125 C 7.945312 -11.832031 7.140625 -12.035156 6.171875 -12.140625 L 4.265625 -12.359375 L 2.90625 -0.4375 L 4.8125 -0.21875 C 5.726562 -0.113281 6.53125 -0.125 7.21875 -0.25 C 7.90625 -0.375 8.484375 -0.644531 8.953125 -1.0625 C 9.429688 -1.488281 9.8125 -2.066406 10.09375 -2.796875 C 10.382812 -3.535156 10.59375 -4.46875 10.71875 -5.59375 Z M 10.71875 -5.59375 "/></g></g></g><g fill="#ebebeb" fill-opacity="1"><g transform="translate(216.518165, 138.693919)"><g><path d="M 0.734375 0.140625 L 7.921875 -12.25 L 8.953125 -12.0625 L 11.15625 2.109375 L 10.1875 1.9375 L 9.5625 -2.5625 L 3.875 -3.640625 L 1.65625 0.3125 Z M 4.28125 -4.328125 L 9.421875 -3.359375 L 8.265625 -11.421875 Z M 4.28125 -4.328125 "/></g></g></g><g fill="#ebebeb" fill-opacity="1"><g transform="translate(229.819965, 141.263534)"><g><path d="M 12.3125 -3.71875 C 11.96875 -2.445312 11.550781 -1.425781 11.0625 -0.65625 C 10.582031 0.113281 10.023438 0.675781 9.390625 1.03125 C 8.753906 1.394531 8.046875 1.582031 7.265625 1.59375 C 6.484375 1.613281 5.640625 1.503906 4.734375 1.265625 L 1.921875 0.515625 L 5.40625 -12.546875 L 8.21875 -11.796875 C 9.21875 -11.535156 10.054688 -11.191406 10.734375 -10.765625 C 11.410156 -10.347656 11.921875 -9.820312 12.265625 -9.1875 C 12.609375 -8.550781 12.78125 -7.785156 12.78125 -6.890625 C 12.789062 -5.992188 12.632812 -4.9375 12.3125 -3.71875 Z M 11.421875 -3.96875 C 11.691406 -5.007812 11.835938 -5.921875 11.859375 -6.703125 C 11.878906 -7.484375 11.753906 -8.15625 11.484375 -8.71875 C 11.210938 -9.28125 10.78125 -9.753906 10.1875 -10.140625 C 9.601562 -10.523438 8.835938 -10.847656 7.890625 -11.109375 L 6.03125 -11.59375 L 2.9375 0 L 4.796875 0.484375 C 5.691406 0.722656 6.484375 0.828125 7.171875 0.796875 C 7.867188 0.773438 8.484375 0.59375 9.015625 0.25 C 9.554688 -0.09375 10.019531 -0.609375 10.40625 -1.296875 C 10.789062 -1.984375 11.128906 -2.875 11.421875 -3.96875 Z M 11.421875 -3.96875 "/></g></g></g><g fill="#ebebeb" fill-opacity="1"><g transform="translate(243.215672, 144.913791)"><g><path d="M 1.984375 0.6875 L 6.390625 -12.09375 L 13.71875 -9.578125 L 13.46875 -8.859375 L 6.9375 -11.109375 L 5.265625 -6.21875 L 10.890625 -4.265625 L 10.640625 -3.5625 L 5.015625 -5.515625 L 3.03125 0.234375 L 9.5625 2.484375 L 9.3125 3.203125 Z M 1.984375 0.6875 "/></g></g></g></svg>